<svg width="18" height="20" viewBox="0 0 18 20" fill="none" xmlns="http://www.w3.org/2000/svg">
<path d="M17.1211 15.8969C16.679 14.8496 16.0374 13.8984 15.232 13.0961C14.4291 12.2915 13.478 11.65 12.4312 11.207C12.4219 11.2023 12.4125 11.2 12.4031 11.1953C13.8633 10.1406 14.8125 8.42266 14.8125 6.48438C14.8125 3.27344 12.2109 0.671875 9 0.671875C5.78906 0.671875 3.1875 3.27344 3.1875 6.48438C3.1875 8.42266 4.13672 10.1406 5.59687 11.1977C5.5875 11.2023 5.57812 11.2047 5.56875 11.2094C4.51875 11.6523 3.57656 12.2875 2.76797 13.0984C1.96338 13.9013 1.32188 14.8524 0.878904 15.8992C0.443721 16.924 0.209018 18.0228 0.187498 19.1359C0.186872 19.161 0.19126 19.1858 0.200402 19.2091C0.209544 19.2324 0.223256 19.2537 0.24073 19.2716C0.258203 19.2895 0.279085 19.3037 0.302145 19.3134C0.325204 19.3231 0.349975 19.3281 0.374998 19.3281H1.78125C1.88437 19.3281 1.9664 19.2461 1.96875 19.1453C2.01562 17.3359 2.74219 15.6414 4.02656 14.357C5.35547 13.0281 7.12031 12.2969 9 12.2969C10.8797 12.2969 12.6445 13.0281 13.9734 14.357C15.2578 15.6414 15.9844 17.3359 16.0312 19.1453C16.0336 19.2484 16.1156 19.3281 16.2187 19.3281H17.625C17.65 19.3281 17.6748 19.3231 17.6979 19.3134C17.7209 19.3037 17.7418 19.2895 17.7593 19.2716C17.7767 19.2537 17.7905 19.2324 17.7996 19.2091C17.8087 19.1858 17.8131 19.161 17.8125 19.1359C17.7891 18.0156 17.557 16.9258 17.1211 15.8969ZM9 10.5156C7.92422 10.5156 6.91172 10.0961 6.15 9.33438C5.38828 8.57266 4.96875 7.56016 4.96875 6.48438C4.96875 5.40859 5.38828 4.39609 6.15 3.63437C6.91172 2.87266 7.92422 2.45312 9 2.45312C10.0758 2.45312 11.0883 2.87266 11.85 3.63437C12.6117 4.39609 13.0312 5.40859 13.0312 6.48438C13.0312 7.56016 12.6117 8.57266 11.85 9.33438C11.0883 10.0961 10.0758 10.5156 9 10.5156Z" fill="black"/>
</svg>
